<svg width="32" height="32" viewBox="0 0 32 32" fill="none" xmlns="http://www.w3.org/2000/svg">
<g filter="url(#filter0_d_1_457)">
<circle cx="36" cy="32" r="20" fill="#AABBFA"/>
</g>
<defs>
<filter id="filter0_d_1_457" x="0" y="0" width="72" height="72" filterUnits="userSpaceOnUse" color-interpolation-filters="sRGB">
<feFlood flood-opacity="0" result="BackgroundImageFix"/>
<feColorMatrix in="SourceAlpha" type="matrix" values="0 0 0 0 0 0 0 0 0 0 0 0 0 0 0 0 0 0 127 0" result="hardAlpha"/>
<feOffset dy="4"/>
<feGaussianBlur stdDeviation="8"/>
<feColorMatrix type="matrix" values="0 0 0 0 0 0 0 0 0 0 0 0 0 0 0 0 0 0 0.1 0"/>
<feBlend mode="normal" in2="BackgroundImageFix" result="effect1_dropShadow_1_457"/>
<feBlend mode="normal" in="SourceGraphic" in2="effect1_dropShadow_1_457" result="shape"/>
</filter>
</defs>
<path d="M16 2.66666C8.64796 2.66666 2.66663 8.64799 2.66663 16C2.66663 23.352 8.64796 29.3333 16 29.3333C23.352 29.3333 29.3333 23.352 29.3333 16C29.3333 8.64799 23.352 2.66666 16 2.66666ZM17.3333 24H14.6666V21.3333H17.3333V24ZM18.6346 17.4867C18.3733 17.6973 18.1213 17.8987 17.9213 18.0987C17.3773 18.6413 17.3346 19.1347 17.3333 19.156V19.3333H14.6666V19.1107C14.6666 18.9533 14.7053 17.5413 16.0346 16.212C16.2946 15.952 16.6173 15.688 16.956 15.4133C17.9346 14.62 18.5773 14.0413 18.5773 13.244C18.5618 12.5704 18.2833 11.9297 17.8014 11.4588C17.3195 10.988 16.6724 10.7244 15.9986 10.7246C15.3249 10.7248 14.678 10.9887 14.1963 11.4597C13.7146 11.9308 13.4364 12.5717 13.4213 13.2453H10.7546C10.7546 10.3533 13.108 7.99999 16 7.99999C18.892 7.99999 21.2453 10.3533 21.2453 13.2453C21.2453 15.3747 19.6733 16.6453 18.6346 17.4867Z" fill="#017EFA"/>
</svg>
